# xmcd
#
# Track frame offsets:
#	150
#	13364
#	23533
#	33476
#	47721
#	61940
#	75301
#	87885
#	101391
#	118374
#	132101
#	148158
#
# Disc length: 2143 seconds
#
# Revision: 1
# Processed by: cddbd v1.5.2PL0 Copyright (c) Steve Scherf et al.
# Submitted via: audiograbber 1.83.01
#
DISCID=98085d0c
DTITLE=Various Artist - Trucker Special Edition - Volume 1
DYEAR=1900
DGENRE=
TTITLE0=Wasted Day Wasted Night - Freddy Fender
TTITLE1=I've Got A Tiger By The Tail - Buck Owens
TTITLE2=Wreck Of The Old 97 - Hank Snow
TTITLE3=I'm Juste A Country Boy - Don Williams
TTITLE4=My Favorite Memory - Merle Haggard
TTITLE5=I Love A Rainy Night - Eddir Rabbit
TTITLE6=She's Got A Drinking Problem - Gary Stewart
TTITLE7=Cold Cold Heart - Hank Williams
TTITLE8=Mountain Music - Alabama
TTITLE9=Coal Miner's Daughter - Loretta Lynn
TTITLE10=Roll On Mississippi - Charlie Pride
TTITLE11=Your Cheating Heart - Hank Williams
EXTD=
EXTT0=
EXTT1=
EXTT2=
EXTT3=
EXTT4=
EXTT5=
EXTT6=
EXTT7=
EXTT8=
EXTT9=
EXTT10=
EXTT11=
PLAYORDER=
